<?xml version="1.0" standalone="no"?>
<!DOCTYPE svg PUBLIC "-//W3C//DTD SVG 20010904//EN"
 "http://www.w3.org/TR/2001/REC-SVG-20010904/DTD/svg10.dtd">
<svg version="1.0" xmlns="http://www.w3.org/2000/svg"
 width="669.000000pt" height="376.000000pt" viewBox="0 0 669.000000 376.000000"
 preserveAspectRatio="xMidYMid meet">
<metadata>
Created by potrace 1.16, written by Peter Selinger 2001-2019
</metadata>
<g transform="translate(0.000000,376.000000) scale(0.100000,-0.100000)"
fill="#000000" stroke="none">
<path d="M4800 2065 l0 -125 -145 0 -145 0 0 -115 0 -115 145 0 145 0 0 -145
0 -145 115 0 114 0 3 143 3 142 123 3 122 3 0 114 0 115 -125 0 -125 0 0 125
0 125 -115 0 -115 0 0 -125z"/>
<path d="M5840 2065 l0 -125 -140 0 -140 0 0 -115 0 -115 140 0 140 0 0 -145
0 -145 115 0 114 0 3 143 3 142 128 3 127 3 0 114 0 115 -130 0 -130 0 0 125
0 125 -115 0 -115 0 0 -125z"/>
</g>
</svg>
